<svg width="56" height="56" viewBox="0 0 56 56" fill="none" xmlns="http://www.w3.org/2000/svg">
<g filter="url(#filter0_d_7_192)">
<circle cx="28" cy="26" r="20" fill="#FF650F"/>
</g>
<path d="M26.3253 34.9833C25.8253 34.9833 25.3503 34.7333 25.0253 34.2917L24.0253 32.9583C24.0253 32.9667 23.9837 32.9417 23.967 32.9417H23.6587C20.8087 32.9417 19.042 32.1667 19.042 28.325V24.9917C19.042 21.4833 21.1837 20.5667 22.9837 20.4083C23.1837 20.3833 23.417 20.375 23.6587 20.375H28.992C32.0087 20.375 33.6087 21.975 33.6087 24.9917V28.325C33.6087 28.5667 33.6003 28.8 33.567 29.025C33.417 30.8 32.5003 32.9417 28.992 32.9417H28.6587L27.6253 34.2917C27.3003 34.7333 26.8253 34.9833 26.3253 34.9833ZM23.6587 21.625C23.467 21.625 23.2837 21.6333 23.1087 21.65C21.1753 21.8167 20.292 22.875 20.292 24.9917V28.325C20.292 31.1833 21.1753 31.6917 23.6587 31.6917H23.992C24.367 31.6917 24.792 31.9 25.0253 32.2L26.0253 33.5417C26.2087 33.7917 26.442 33.7917 26.6253 33.5417L27.6253 32.2083C27.867 31.8833 28.2503 31.6917 28.6587 31.6917H28.992C31.1087 31.6917 32.167 30.8 32.3253 28.9C32.3503 28.7 32.3587 28.5167 32.3587 28.325V24.9917C32.3587 22.6667 31.317 21.625 28.992 21.625H23.6587Z" fill="white"/>
<path d="M26.3255 27.8249C25.8589 27.8249 25.4922 27.4499 25.4922 26.9915C25.4922 26.5332 25.8672 26.1582 26.3255 26.1582C26.7839 26.1582 27.1589 26.5332 27.1589 26.9915C27.1589 27.4499 26.7922 27.8249 26.3255 27.8249Z" fill="white"/>
<path d="M28.9915 27.825C28.5249 27.825 28.1582 27.45 28.1582 26.9917C28.1582 26.5333 28.5332 26.1583 28.9915 26.1583C29.4499 26.1583 29.8249 26.5333 29.8249 26.9917C29.8249 27.45 29.4499 27.825 28.9915 27.825Z" fill="white"/>
<path d="M23.6666 27.825C23.1999 27.825 22.8333 27.45 22.8333 26.9917C22.8333 26.5333 23.2083 26.1583 23.6666 26.1583C24.1249 26.1583 24.4999 26.5333 24.4999 26.9917C24.4999 27.45 24.1249 27.825 23.6666 27.825Z" fill="white"/>
<path d="M32.9497 29.5744C32.783 29.5744 32.6164 29.5077 32.4997 29.3827C32.3664 29.2493 32.308 29.0577 32.333 28.8744C32.358 28.6994 32.3664 28.516 32.3664 28.3244V24.991C32.3664 22.666 31.3247 21.6243 28.9997 21.6243H23.6664C23.4747 21.6243 23.2914 21.6327 23.1164 21.6493C22.933 21.6743 22.7414 21.6077 22.608 21.4827C22.4747 21.3493 22.3997 21.166 22.4164 20.9827C22.5664 19.1827 23.4914 17.041 26.9997 17.041H32.333C35.3497 17.041 36.9497 18.641 36.9497 21.6577V24.991C36.9497 28.4994 34.808 29.416 33.008 29.5744C32.983 29.5744 32.9664 29.5744 32.9497 29.5744ZM23.7664 20.3743H28.9914C32.008 20.3743 33.608 21.9744 33.608 24.991V28.216C35.0247 27.866 35.6914 26.8244 35.6914 24.991V21.6577C35.6914 19.3327 34.6497 18.291 32.3247 18.291H26.9914C25.158 18.291 24.1247 18.9577 23.7664 20.3743Z" fill="white"/>
<defs>
<filter id="filter0_d_7_192" x="0" y="0" width="56" height="56" filterUnits="userSpaceOnUse" color-interpolation-filters="sRGB">
<feFlood flood-opacity="0" result="BackgroundImageFix"/>
<feColorMatrix in="SourceAlpha" type="matrix" values="0 0 0 0 0 0 0 0 0 0 0 0 0 0 0 0 0 0 127 0" result="hardAlpha"/>
<feOffset dy="2"/>
<feGaussianBlur stdDeviation="4"/>
<feComposite in2="hardAlpha" operator="out"/>
<feColorMatrix type="matrix" values="0 0 0 0 0 0 0 0 0 0 0 0 0 0 0 0 0 0 0.25 0"/>
<feBlend mode="normal" in2="BackgroundImageFix" result="effect1_dropShadow_7_192"/>
<feBlend mode="normal" in="SourceGraphic" in2="effect1_dropShadow_7_192" result="shape"/>
</filter>
</defs>
</svg>
