<svg width="7" height="8" viewBox="0 0 7 8" fill="none" xmlns="http://www.w3.org/2000/svg">
<path d="M5.69217 7.01356L0.334845 1.65623C0.151803 1.47319 0.151803 1.16961 0.334845 0.986566C0.517887 0.803524 0.821469 0.803524 1.00451 0.986566L6.36183 6.34389C6.54488 6.52693 6.54488 6.83051 6.36183 7.01356C6.17879 7.1966 5.87521 7.1966 5.69217 7.01356Z" fill="#323232"/>
<path d="M0.334821 7.01356C0.151779 6.83051 0.151778 6.52693 0.334821 6.34389L5.69214 0.986566C5.87519 0.803524 6.17877 0.803524 6.36181 0.986566C6.54485 1.16961 6.54485 1.47319 6.36181 1.65623L1.00449 7.01356C0.821444 7.1966 0.517862 7.1966 0.334821 7.01356Z" fill="#323232"/>
</svg>
