<svg width="11" height="11" viewBox="0 0 11 11" fill="none" xmlns="http://www.w3.org/2000/svg">
<path d="M5.59002 5.40998L4.95551 6.04448C4.60451 6.39548 4.60451 6.96699 4.95551 7.31799C5.30651 7.66899 5.87801 7.66899 6.22901 7.31799L7.22803 6.31899C7.93003 5.61699 7.93003 4.47848 7.22803 3.77198C6.52603 3.06998 5.38751 3.06998 4.68101 3.77198L3.59202 4.86098C2.98902 5.46398 2.98902 6.44048 3.59202 7.04348" stroke="#323232" stroke-opacity="0.7" stroke-width="0.826531" stroke-linecap="round" stroke-linejoin="round"/>
<path d="M4.15 10H6.85C9.1 10 10 9.1 10 6.85V4.15C10 1.9 9.1 1 6.85 1H4.15C1.9 1 1 1.9 1 4.15V6.85C1 9.1 1.9 10 4.15 10Z" stroke="#323232" stroke-opacity="0.7" stroke-width="0.826531" stroke-linecap="round" stroke-linejoin="round"/>
</svg>
