<svg width="12" height="12" viewBox="0 0 12 12" fill="none" xmlns="http://www.w3.org/2000/svg">
<path d="M1.74973 10.2498C2.16473 10.6648 2.83473 10.6648 3.24973 10.2498L9.74973 3.74985C10.1647 3.33485 10.1647 2.66485 9.74973 2.24985C9.33473 1.83485 8.66473 1.83485 8.24973 2.24985L1.74973 8.74985C1.33473 9.16485 1.33473 9.83485 1.74973 10.2498Z" stroke="#292D32" stroke-opacity="0.7" stroke-width="0.75" stroke-linecap="round" stroke-linejoin="round"/>
<path d="M9.00488 4.495L7.50488 2.995" stroke="#292D32" stroke-opacity="0.7" stroke-width="0.75" stroke-linecap="round" stroke-linejoin="round"/>
<path d="M4.24988 1.21988L4.99988 0.999878L4.77988 1.74988L4.99988 2.49988L4.24988 2.27988L3.49988 2.49988L3.71988 1.74988L3.49988 0.999878L4.24988 1.21988Z" stroke="#292D32" stroke-opacity="0.7" stroke-width="0.5" stroke-linecap="round" stroke-linejoin="round"/>
<path d="M2.24988 4.21988L2.99988 3.99988L2.77988 4.74988L2.99988 5.49988L2.24988 5.27988L1.49988 5.49988L1.71988 4.74988L1.49988 3.99988L2.24988 4.21988Z" stroke="#292D32" stroke-opacity="0.7" stroke-width="0.5" stroke-linecap="round" stroke-linejoin="round"/>
<path d="M9.74988 6.72L10.4999 6.5L10.2799 7.25L10.4999 8L9.74988 7.78L8.99988 8L9.21988 7.25L8.99988 6.5L9.74988 6.72Z" stroke="#292D32" stroke-opacity="0.7" stroke-width="0.5" stroke-linecap="round" stroke-linejoin="round"/>
</svg>
