<svg width="16" height="16" viewBox="0 0 16 16" fill="none" xmlns="http://www.w3.org/2000/svg">
<path d="M7.99992 14.6667C11.6818 14.6667 14.6666 11.6819 14.6666 8.00004C14.6666 4.31814 11.6818 1.33337 7.99992 1.33337C4.31802 1.33337 1.33325 4.31814 1.33325 8.00004C1.33325 11.6819 4.31802 14.6667 7.99992 14.6667Z" stroke="#323232" stroke-width="0.88" stroke-linecap="round" stroke-linejoin="round"/>
<path d="M5.33936 9.67334C5.45936 9.87334 5.60602 10.06 5.77268 10.2267C6.99935 11.4534 8.99268 11.4534 10.226 10.2267C10.726 9.72668 11.0127 9.09332 11.106 8.44666" stroke="#323232" stroke-width="0.88" stroke-linecap="round" stroke-linejoin="round"/>
<path d="M4.89282 7.55416C4.98616 6.90082 5.27283 6.27413 5.77283 5.77413C6.99949 4.54746 8.99282 4.54746 10.2262 5.77413C10.3995 5.94746 10.5395 6.13414 10.6595 6.32747" stroke="#323232" stroke-width="0.88" stroke-linecap="round" stroke-linejoin="round"/>
<path d="M5.21313 11.4532V9.67322H6.99312" stroke="#323232" stroke-width="0.88" stroke-linecap="round" stroke-linejoin="round"/>
<path d="M10.7861 4.54688V6.32686H9.0061" stroke="#323232" stroke-width="0.88" stroke-linecap="round" stroke-linejoin="round"/>
</svg>
