<svg width="13" height="13" viewBox="0 0 13 13" fill="none" xmlns="http://www.w3.org/2000/svg">
<path d="M9.35282 0.273073L3.13482 2.33885C-1.04494 3.7367 -1.04494 6.01594 3.13482 7.4069L4.98025 8.01975L5.5931 9.86518C6.98406 14.0449 9.27019 14.0449 10.6611 9.86518L12.7338 3.65407C13.6565 0.865263 12.1416 -0.656528 9.35282 0.273073ZM9.57317 3.97771L6.95651 6.60813C6.85323 6.71142 6.72239 6.75962 6.59156 6.75962C6.46073 6.75962 6.3299 6.71142 6.22661 6.60813C6.02691 6.40844 6.02691 6.07792 6.22661 5.87822L8.84326 3.2478C9.04295 3.0481 9.37348 3.0481 9.57317 3.2478C9.77286 3.44749 9.77286 3.77801 9.57317 3.97771Z" fill="white"/>
</svg>
